<svg xmlns="http://www.w3.org/2000/svg" viewBox="0 0 240 41">
  <g transform="scale(0.35, 0.35) translate(-46.502318,-47.746053)">
    <path fill="#FFF" d="m47.239,162.94c-0.72035-0.41873-0.73603-0.65237-0.73603-10.968,0-10.687-0.02487-10.401,0.94838-10.904,0.25785-0.13334,0.77235-0.27663,1.1433-0.31842,0.37099-0.0418,5.1366-0.15044,10.59-0.24145,10.38-0.17322,10.734-0.15803,11.566,0.49628,0.77248,0.60763,0.69573,0.38765,5.73,16.424,0.39575,1.2606,0.82203,2.6052,0.94729,2.988,0.40695,1.2436,0.45131,2.038,0.13342,2.3893-0.27885,0.30812-0.52687,0.31317-15.157,0.30844-10.284-0.003-14.964-0.0571-15.165-0.17421z"/>
    <path fill="#FFF" d="m84.067,162.96c-0.58825-0.18031-1.0175-0.57844-1.3619-1.2632-0.15306-0.30429-1.7235-5.1413-3.49-10.749-3.4842-11.061-3.6-11.552-3.0272-12.847,0.32152-0.72685,8.3525-11.77,9.2509-12.721,0.53124-0.56213,0.9866-0.6416,1.6564-0.28907,0.23477,0.12357,3.2769,3.0933,6.7602,6.5995,5.8126,5.8506,6.37,6.4584,6.779,7.3907,0.38162,0.87001,0.44345,1.2104,0.43064,2.3711-0.0274,2.484-1.131,19.841-1.2998,20.444-0.32722,1.1691-0.13245,1.141-8.1261,1.1736-3.9162,0.016-7.3237-0.0333-7.5721-0.10943z"/>
    <path fill="#bbb" d="m106.47,162.94c-0.67354-0.19512-1.4242-1.086-1.542-1.8299-0.15914-1.0054,1.1079-19.439,1.4024-20.402,0.54472-1.7818,1.0688-2.3008,9.8054-9.7113,4.5208-3.8346,8.6414-7.2477,9.1568-7.5846,1.7344-1.1337,2.4348-1.264,7.4408-1.3835,4.9642-0.11857,6.6111-0.0255,8.2197,0.46445,1.483,0.45169,18.532,8.5842,19.268,9.191,0.31923,0.26314,0.77359,0.84469,1.0097,1.2923l0.42925,0.81388,0.0452,11.144c0.0248,6.1292,0.009,11.293-0.0361,11.474-0.15811,0.64219-1.6848,2.7792-2.7368,3.8307-1.4828,1.4822-2.3417,2.0277-3.9074,2.4814l-1.3522,0.39186-23.353-0.0143c-13.551-0.008-23.562-0.0748-23.85-0.15843z"/>
    <path fill="#FFF" d="m47.53,136.01c-0.34776-0.12663-0.64311-0.2313-0.65634-0.23261-0.01324-0.001-0.10214-0.22639-0.19759-0.50018-0.1191-0.34166-0.17353-3.7149-0.17353-10.754,0-11.591-0.04406-11.141,1.1417-11.666,0.51297-0.22691,3.3264-0.61038,11.55-1.5742,5.9794-0.70081,11.153-1.2742,11.497-1.2742,0.34396,0,1.1063,0.19045,1.694,0.42322,1.0089,0.39955,1.2909,0.64481,5.0436,4.3865,4.0472,4.0353,4.6399,4.7792,4.6399,5.8236,0,0.7259-0.54476,1.5817-3.9476,6.2013-6.2499,8.4848-5.7534,7.8943-7.1969,8.5588l-0.94796,0.43636-5.9277,0.1122c-15.966,0.30221-15.851,0.3018-16.518,0.0587z"/>
    <path fill="#FFF" d="m102.93,134.07c-0.75936-0.37069-24.769-24.504-25.33-25.461-0.48847-0.83298-0.5683-1.7762-0.22073-2.608,0.29902-0.71565,7.6599-10.506,8.3581-11.116,0.7601-0.66481,2.1372-1.1622,3.2177-1.1622,0.91579,0,21.325,1.3414,22.827,1.5003,1.8776,0.19864,3.0042,0.88977,3.7028,2.2717,0.66297,1.3114,6.9112,19.195,7.0003,20.036,0.11306,1.0675-0.26034,2.1671-1.0214,3.0078-0.32591,0.36002-3.6157,3.2076-7.3106,6.3279-8.2647,6.9795-8.1853,6.9143-8.8046,7.2263-0.65384,0.32937-1.718,0.31949-2.4184-0.0225z"/>
    <path fill="#FFF" d="m159.92,126.34c-0.17387-0.0446-3.6161-1.6536-7.6494-3.5756-4.722-2.2502-7.5219-3.6725-7.863-3.9942-0.67057-0.63243-1.0061-1.4316-1.0058-2.3956,0.00015-0.82722,4.6297-25.753,4.9258-26.522,0.45315-1.1757,1.4283-1.9819,2.6687-2.2063,1.2059-0.21814,8.4148-0.66746,8.9979-0.56082,0.81301,0.14867,1.3543,0.51411,1.7009,1.1484,0.26231,0.48002,0.28286,1.6258,0.32674,18.216,0.0258,9.7372,0.003,18.008-0.0496,18.379-0.16182,1.1318-1.0318,1.7723-2.0521,1.5106z"/>
    <path fill="#FFF" d="m128.37,117.45c-0.65704-0.21309-1.2231-0.644-1.5474-1.1781-0.16615-0.27356-1.9263-5.0854-3.9114-10.693-3.4784-9.8259-3.6094-10.239-3.6098-11.381-0.00023-0.85091,0.0816-1.3378,0.29029-1.7248,0.15992-0.29661,1.6705-2.628,3.3569-5.181,3.9452-5.9725,3.6253-5.7399,8.3441-6.0676,3.5102-0.24381,4.6073-0.1605,5.7574,0.4372,1.5478,0.80439,6.2082,4.1889,6.6155,4.8045,0.73556,1.1115,0.73622,1.1064-1.9917,15.61-1.9254,10.237-2.621,13.639-2.8845,14.108-0.6301,1.1211-1.0266,1.2104-5.8216,1.3108-2.3039,0.0482-4.3729,0.028-4.5977-0.0449z"/>
    <path fill="#bbb" d="m47.936,107.99c-0.29811-0.15201-0.68934-0.4772-0.8694-0.72265-0.32734-0.44622-0.32738-0.4489-0.37264-25.054-0.03183-17.306,0.0066-25.007,0.12954-25.952,0.21449-1.6487,0.7658-2.8574,1.9529-4.2813,0.99862-1.1979,2.5689-2.5369,3.5161-2.9981,0.35913-0.1749,1.3906-0.46102,2.292-0.63582,1.5-0.29085,2.1622-0.3139,7.8039-0.27164l6.1648,0.04618,0.90484,0.44433c0.49766,0.24438,1.1379,0.7167,1.4226,1.0496,0.58096,0.67907,11.109,18.569,11.726,19.925,0.78085,1.7172,0.88506,2.4777,0.87642,6.3956-0.0134,6.0732-0.26735,12.876-0.51363,13.759-0.1213,0.4347-0.4074,1.1816-0.63579,1.6598-0.45329,0.94903-8.1229,11.367-9.1576,12.439-0.69578,0.72092-2.0423,1.5034-3.042,1.7679-0.63476,0.16791-20.609,2.7072-21.292,2.7068-0.20025-0.00014-0.60799-0.12462-0.9061-0.27662z"/>
    <path fill="#FFF" d="M100.76,90.248c-12.482-0.861-12.011-0.784-12.642-2.058l-0.35288-0.71132,0.16585-6.7181c0.15807-6.4027,0.18205-6.7514,0.51095-7.4294,0.60481-1.2467,0.41827-1.1971,13.2-3.5081,10.951-1.98,11.604-2.0803,12.316-1.8918,0.41388,0.10948,1.0015,0.39892,1.3058,0.64321,0.56023,0.44976,5.85,8.0024,6.5662,9.3751,0.44459,0.85214,0.51746,2.0417,0.17493,2.8556-0.28307,0.67263-5.3893,8.4432-5.9269,9.0195-0.73148,0.7841-1.5501,1.1028-2.9482,1.1478-0.69552,0.02237-6.2611-0.30388-12.368-0.72501z"/>
    <path fill="#FFF" d="m147.51,83.301c-0.21791-0.06629-0.64471-0.24806-0.94843-0.40394-0.76323-0.39172-5.0064-3.3607-5.7203-4.0025-0.66518-0.59804-0.99187-1.4087-0.87008-2.1592,0.0817-0.50359,3.9518-10.139,4.5732-11.386,0.39069-0.78399,0.84878-1.2953,1.465-1.6353,0.41783-0.2305,1.3258-0.2672,7.6352-0.30864l7.161-0.04704,0.53078,0.53078c0.37988,0.37988,0.55981,0.73029,0.6329,1.2326,0.0562,0.38598,0.0803,4.1517,0.0537,8.3683-0.0441,6.9754-0.0736,7.7125-0.32772,8.1775-0.50118,0.91704-0.83713,0.99302-6.1888,1.3997-5.0176,0.38133-7.2923,0.44776-7.9965,0.23355z"/>
    <path fill="#FFF" d="m126.84,76.79c-0.37223-0.18425-0.91302-0.62877-1.2018-0.98782-0.99554-1.238-6.5902-9.5705-6.9075-10.288-0.50574-1.1433-0.52308-2.0081-0.0857-4.2753,1.8492-9.5852,2.3252-11.849,2.5849-12.294,0.1602-0.27431,0.53772-0.64352,0.83893-0.82048,0.52453-0.30814,0.79807-0.32174,6.4754-0.32174,5.8605,0,5.9353,0.0041,6.5996,0.35891,0.36952,0.1974,0.8371,0.62419,1.039,0.94843,0.39396,0.63252,4.2288,9.3697,4.7146,10.742,0.33078,0.93409,0.37487,1.9546,0.11867,2.7466-0.0956,0.29553-1.2871,3.2758-2.6477,6.6229-3.17,7.798-2.8277,7.4131-6.8834,7.7396-3.0588,0.24628-3.8616,0.2167-4.6451-0.17113z"/>
    <path fill="#FFF" d="M88.047,67.585c-0.824-0.229-1.69-0.826-2.151-1.485-0.646-0.923-9.118-15.491-9.414-16.188-0.26216-0.6176-0.28225-0.80938-0.12462-1.1899,0.40455-0.97668-0.82874-0.91472,19.226-0.96588,10.085-0.02573,18.652-0.0016,19.038,0.0537,0.87475,0.12524,1.6755,0.86679,1.831,1.6956,0.12831,0.68397-1.831,11.036-2.2808,12.05-0.35628,0.8034-1.3466,1.6994-2.2432,2.0293-0.61076,0.22479-20.571,3.8889-22.431,4.1177-0.39123,0.04812-1.0442-0.0048-1.451-0.11769z"/>
    <path fill="#bbb" d="m146.61,58.794c-0.73296-0.17414-1.2567-0.56023-1.6736-1.2336-0.65238-1.0538-3.5862-8.0414-3.5862-8.5413,0-1.0059-0.27505-0.97853,9.8435-0.97853,10.046,0,9.8088-0.02204,10.315,0.95744,0.20961,0.40534,0.24001,1.1122,0.20027,4.6571l-0.0469,4.1792-0.43796,0.43803-0.43796,0.43803-4.2252,0.10013c-5.7147,0.13542-9.3371,0.12942-9.9513-0.0165z"/>
    <g transform="matrix(0.34062807,0,0,0.34062807,50.134642,46.096278)" fill="#FFF">
      <path d="m415.83,52.391,0,7.0285,7.0285,0c10.25,0.14665,16.986,3.3681,20.207,9.6642,3.2214,6.2966,4.6856,14.789,4.3928,25.478v189.77h31.628v-110.7h79.422v-14.057h-79.422v-93.128h55.877c14.13-0.073,24.966,3.1484,32.507,9.6642,7.5409,6.5162,11.348,16.766,11.421,30.75h7.0285v-26.357c0.29268-7.3212-1.6109-13.764-5.7107-19.328-4.1001-5.564-12.154-8.4926-24.161-8.7857z"/>
      <path d="m710.44,201.75c-0.18316,20.683-4.2099,37.742-12.08,51.176-7.8706,13.435-18.487,20.39-31.848,20.866-13.362-0.47588-23.978-7.4312-31.848-20.866-7.8705-13.435-11.897-30.494-12.08-51.176,0.18299-20.683,4.2098-37.742,12.08-51.176,7.8704-13.435,18.486-20.39,31.848-20.866,13.361,0.47604,23.977,7.4314,31.848,20.866,7.8704,13.435,11.897,30.494,12.08,51.176zm-121.24,0c0.14641,24.344,6.8821,44.624,20.207,60.841s32.36,24.636,57.107,25.259c24.746-0.62232,43.782-9.0419,57.107-25.259s20.06-36.497,20.207-60.841c-0.14659-24.344-6.8823-44.624-20.207-60.841s-32.361-24.636-57.107-25.259c-24.746,0.62249-43.782,9.0421-57.107,25.259s-20.061,36.497-20.207,60.841z"/>
      <path d="m862.71,250.95c-3.368,5.4911-7.6144,10.323-12.739,14.496-5.1251,4.1732-12.007,6.3696-20.646,6.5892-9.0786,0.0366-16.839-2.6723-23.282-8.1268-6.4429-5.4544-9.8107-13.874-10.104-25.259,0.14638-10.689,5.1249-19.182,14.936-25.478,9.8106-6.2963,23.575-9.5177,41.293-9.6642h10.543zm31.628,33.386,0-94.885c-0.58586-30.75-6.8822-50.957-18.889-60.621-12.007-9.6641-26.211-14.057-42.61-13.178-10.872-0.0364-21.195,0.91534-30.969,2.8553-9.7741,1.9403-17.022,5.0885-21.745,9.4446-4.2098,4.393-6.7723,9.2251-7.6875,14.496-0.9152,5.2715-1.2813,10.982-1.0982,17.132h15.814c2.7089-11.238,7.3946-19.072,14.057-23.502,6.6624-4.4293,14.862-6.5525,24.6-6.3696,10.762-0.58555,19.548,3.2216,26.357,11.421,6.8088,8.2001,10.323,24.307,10.543,48.321h-10.543c-24.49-0.36598-45.356,3.0019-62.598,10.104-17.242,7.1018-26.247,20.134-27.016,39.096,0.91516,18.962,6.9919,31.994,18.23,39.096,11.238,7.1018,22.147,10.47,32.727,10.104,13.142-0.25626,23.758-2.3795,31.848-6.3696,8.09-3.9902,13.874-8.3098,17.352-12.959h1.7571l12.3,15.814z"/>
      <path d="m976.71,133.22c-1.684-4.4293-4.9054-7.8703-9.6642-10.323-4.7589-2.4525-11.495-3.6971-20.207-3.7339h-31.628v7.0285h7.0285c10.25,0.14658,16.986,3.368,20.207,9.6642,3.2214,6.2965,4.6857,14.789,4.3928,25.478v123h31.628v-134.24c4.4294-5.0809,9.6276-9.4152,15.595-13.003,5.9668-3.5873,12.483-5.4616,19.548-5.6228,8.8588-0.21948,15.741,3.2948,20.646,10.543,4.9052,7.2483,7.3945,19.548,7.4678,36.9v105.43h31.628v-105.43c0.036-3.7704-0.037-8.09-0.2196-12.959-0.1832-4.8686-0.6957-8.7489-1.5375-11.641,3.7337-5.5641,9.0051-10.689,15.814-15.375,6.8087-4.6855,13.837-7.1748,21.086-7.4678,8.8586-0.21948,15.741,3.2948,20.646,10.543,4.9051,7.2483,7.3943,19.548,7.4678,36.9v105.43h31.628v-105.43c-0.403-24.929-5.3083-41.842-14.716-50.737-9.4082-8.8953-20.903-13.068-34.484-12.52-9.8841,0.0368-19.548,2.16-28.993,6.3696-9.4448,4.21-17.352,10.287-23.721,18.23-4.5028-9.481-10.433-15.997-17.791-19.548-7.3581-3.5507-15.485-5.2346-24.38-5.0518-10.58,0.18321-19.731,2.0136-27.455,5.491-7.7242,3.4778-13.801,7.5046-18.23,12.08z"/>
      <path d="m1204.8,52.391c-12.007,0.29309-20.061,3.2216-24.161,8.7857-4.0999,5.5645-6.0035,12.007-5.7106,19.328v26.357h7.0285c0.073-13.984,3.8803-24.234,11.421-30.75,7.541-6.5158,18.377-9.7372,32.507-9.6642h31.628v217.88h31.628v-217.88h79.071v-14.057z"/>
      <path d="m1379.1,284.33,31.628,0,0-130.03c3.5874-5.3445,8.2731-9.5909,14.057-12.739,5.7838-3.1481,12.227-4.7588,19.328-4.8321,6.2231,0.00015,11.787,0.87871,16.693,2.6357,4.9052,1.7573,8.7123,4.393,11.421,7.9071l14.057-10.543c-1.7206-3.5141-3.551-6.5891-5.491-9.225-1.9403-2.6355-4.2099-4.832-6.8089-6.5892-2.7457-1.757-6.0403-3.0748-9.8839-3.9536-3.8438-0.8784-7.5777-1.3177-11.202-1.3178-10.543,0.25642-19.328,2.3796-26.357,6.3696-7.0286,3.9903-12.3,8.3099-15.814,12.959h-1.7571c-1.684-5.2712-4.9054-9.2248-9.6643-11.861-4.7589-2.6355-11.495-3.9534-20.207-3.9536h-28.114v7.0285h3.5143c10.25,0.14658,16.986,3.368,20.207,9.6642,3.2214,6.2965,4.6856,14.789,4.3928,25.478z"/>
      <path d="m1640,192.96c0.036-24.746-5.7475-43.782-17.352-57.107s-29.249-20.06-52.934-20.207c-22.074,0.62249-38.986,9.0421-50.737,25.259s-17.681,36.497-17.791,60.841c0,24.344,6.1499,44.624,18.45,60.841s30.75,24.636,55.35,25.259c13.178,0.10981,25.039-2.7455,35.582-8.566s19.768-15.265,27.675-28.334l-7.0285-5.2714c-6.0037,8.8589-12.886,15.741-20.646,20.646-7.7608,4.9053-17.279,7.3946-28.553,7.4678-15.046-0.36605-26.686-6.6624-34.923-18.889-8.2366-12.227-12.41-28.187-12.52-47.882h104.73zm-105.43,0c0.2196-17.937,3.7339-32.58,10.543-43.928,6.8088-11.348,15.594-17.205,26.357-17.571,12.3,0.14658,21.525,5.5644,27.675,16.253,6.1499,10.689,9.2249,25.771,9.225,45.246z"/>
      <path d="m1800.9,192.96c0.036-24.746-5.7475-43.782-17.352-57.107-11.605-13.325-29.249-20.06-52.934-20.207-22.074,0.62249-38.986,9.0421-50.737,25.259s-17.681,36.497-17.791,60.841c-0.0001,24.344,6.1499,44.624,18.45,60.841s30.75,24.636,55.35,25.259c13.178,0.10981,25.039-2.7455,35.582-8.566s19.768-15.265,27.675-28.334l-7.0285-5.2714c-6.0037,8.8589-12.886,15.741-20.646,20.646-7.7608,4.9053-17.279,7.3946-28.553,7.4678-15.046-0.36605-26.687-6.6624-34.923-18.889-8.2366-12.227-12.41-28.187-12.52-47.882h104.73zm-105.43,0c0.2196-17.937,3.7338-32.58,10.543-43.928,6.8088-11.348,15.594-17.205,26.357-17.571,12.3,0.14658,21.525,5.5644,27.675,16.253,6.1499,10.689,9.2248,25.771,9.225,45.246z"/>
    </g>
  </g>
</svg>